<svg version="1.1"
 	 baseProfile="full"
      xmlns="http://www.w3.org/2000/svg"
      width="1286"
      height="1272">
 <g fill="none" stroke="#222222" stroke-width="4" stroke-linecap="round" stroke-linejoin="round" >
   <path d="M132,292 L132,9   L167,45  L167,150 L327,150 L291,186 L167,186 L167,256 L132,292 
            M132,9   L167,45  L203,45  L167,9   L132,9
            M167,150 L167,45  L203,45  L203,115 L167,150
            M167,186 L203,186 L203,256 L167,256 L167,186
            M132,292 L167,256 L203,256 L167,292 L132,292
            M167,150 L203,115 L327,115 L327,45  L362,9 L362,292 L327,256 L327,150 L167,150
            M291,256 L291,186 L327,150 L327,256 L291,256
            M291,256 L327,256 L362,292 L327,292 L291,256
            M291,115 L291,45  L327,45  L327,115 L291,115
            M291,45  L327,9   L362,9   L327,45 L291,45" />
  </g>

 <g fill="none" stroke="#222222" stroke-width="4" stroke-linecap="round" stroke-linejoin="round" >
   <path d="M38,389  L38,106  L78,150  L78,345 L158,345 L158,150 L211,150 L211,389 L38,389
            M38,106  L78,150  L122,150 L78,106 L38,106
            M78,150  L78,300  L122,300 L122,150 L78,150
            M78,300  L78,345  L158,345 L122,300 L78,300
            M158,150 L211,106 L256,106 L211,150 L158,150
            M211,389 L211,150 L256,106 L256,345 L211,389" />
  </g>

</svg>
